<svg version="1.1" id="header-logo" xmlns="http://www.w3.org/2000/svg" x="0" y="0" viewBox="0 0 343.1 107.7" style="enable-background:new 0 0 343.1 107.7" xml:space="preserve">
    <style>
        .st0{fill:#181817}
    </style>
    <path class="st0" d="M85.8 93.6c-4-.1-7.6-1.1-7.6-1.1l-8.6 12s6.6 3.2 18.5 3.2c15.9 0 28.8-9.2 28.8-31.3V27.3l-16.8-2.7V29c-3.9-.4-8.2-1.1-13.7-1.1-15.9 0-25.3 10.7-25.6 26.8 0 17.1 11.9 26.6 24.9 26.6 4.7 0 8.5 0 14-.5-.3 8.4-4.8 13.1-13.9 12.8zm3-26.2c-6.7 0-11.5-5.4-11.5-12.3 0-7.8 3.7-13.4 12.1-13.4 3.7 0 6.8.7 10.3 1v24c-5.2.7-8.2.7-10.9.7zM43.5 29.8 40.3 45H17.7v20.3h36.9l-3.3 15.5H0V0h54.6l-3.3 15.5H17.7v14.3h25.8z"/>
    <path d="M181.9 55c0 16.5-11.8 27.6-28.9 27.6-17.1 0-29-11.1-29-27.6 0-16.4 11.9-27.3 28.9-27.3 17.2 0 29 10.8 29 27.3zm-16.3 0c0-7.6-5.3-12.6-12.6-12.6-7.4 0-12.6 5.1-12.6 12.6 0 7.8 5.3 12.9 12.6 12.9s12.6-5.1 12.6-12.9z" style="fill:#d24a43"/>
    <path class="st0" d="M222 42.4c-5.8 0-8.5 0-14.2.4v38h-17.1V31.6c11.3-4.3 23.9-4.3 34.1-4.3L222 42.4zM255.1 46.7 267.9 28H286l-17.6 26.2L286 80.8h-18.1l-12.8-18.2h-4.6v18.2h-17.1V28h17.1v18.7h4.6zM343.1 32.9v47.9h-17.2v-3.5c-4 3.2-8.5 5.1-14.7 5.1-12.3 0-24.2-9.6-24.2-27.4.4-16.1 9.8-26.8 25.6-26.8 9.6-.1 15 .7 30.5 4.7zm-39.6 22.4c0 7.7 4.7 12.9 11.5 12.9 3.6 0 7.2-1.3 10.9-4.4V42.9c-3.5-.3-6.6-1-10.3-1-8.3 0-12.1 5.6-12.1 13.4z"/>
</svg>
