<svg width="21" height="20" viewBox="0 0 21 20" fill="none" xmlns="http://www.w3.org/2000/svg">
<g id="vuesax/outline/arrow-right">
<g id="arrow-right">
<path id="Vector" d="M12.5248 15.6833C12.3664 15.6833 12.2081 15.625 12.0831 15.5C11.8414 15.2583 11.8414 14.8583 12.0831 14.6167L16.6998 10L12.0831 5.38334C11.8414 5.14167 11.8414 4.74167 12.0831 4.50001C12.3248 4.25834 12.7248 4.25834 12.9664 4.50001L18.0248 9.55834C18.2664 9.80001 18.2664 10.2 18.0248 10.4417L12.9664 15.5C12.8414 15.625 12.6831 15.6833 12.5248 15.6833Z" fill="white"/>
<path id="Vector_2" d="M17.4415 10.625H3.4165C3.07484 10.625 2.7915 10.3417 2.7915 10C2.7915 9.65833 3.07484 9.375 3.4165 9.375H17.4415C17.7832 9.375 18.0665 9.65833 18.0665 10C18.0665 10.3417 17.7832 10.625 17.4415 10.625Z" fill="white"/>
</g>
</g>
</svg>
