<svg width="346" height="109" viewBox="0 0 346 109" fill="none" xmlns="http://www.w3.org/2000/svg">
<path d="M0 109H98.0353C134.786 109 145 94.9358 145 77.648V75.5969C145 56.5512 128.383 50.1049 120.606 48.2004C126.093 46.7353 138.597 41.0216 138.597 26.9571V24.906C138.597 12.0134 129.601 0 97.1194 0H0V109ZM91.0267 23.0014C100.938 23.0014 103.375 27.1036 103.375 31.6453V31.9382C103.375 36.3334 100.938 40.7286 91.0267 40.7286H35.5243V23.0014H91.0267ZM94.0769 63.8765C105.812 63.8765 108.102 69.2972 108.102 73.9854V74.5714C108.102 78.9664 105.967 85.2666 94.0769 85.2666H35.5243V63.8765H94.0769Z" fill="#231F20"/>
<path d="M191.94 70.3227H238.834C256.572 70.3227 262.744 76.183 262.744 89.5153V102.114C262.744 105.924 263.364 107.682 264.44 109H301V108.267C300.073 106.509 298.841 103.726 298.841 94.9358V78.9664C298.841 65.0485 288.813 56.8442 277.09 53.9141C284.652 51.7165 298.377 45.5633 298.377 30.0337V28.2756C298.377 12.5995 286.811 0 248.555 0H156V109H191.94V70.3227ZM191.94 24.7594H246.395C256.886 24.7594 260.891 29.5942 260.891 35.3078V35.4544C260.891 41.4611 256.572 46.1493 246.395 46.1493H191.94V24.7594Z" fill="#231F20"/>
<path d="M346 83H308V109H346V83Z" fill="#231F20"/>
</svg>
