<svg width="20" height="82" viewBox="0 0 20 82" fill="none" xmlns="http://www.w3.org/2000/svg">
<g id="Group 5">
<line id="Line 3" x1="10" y1="20" x2="10" y2="62" stroke="url(#paint0_linear_14_4140)" stroke-width="4" stroke-linecap="round" stroke-dasharray="7 7"/>
<path id="Ellipse 3" d="M20 10C20 15.5228 15.5228 20 10 20C4.47715 20 0 15.5228 0 10C0 4.47715 4.47715 0 10 0C15.5228 0 20 4.47715 20 10ZM5 10C5 12.7614 7.23858 15 10 15C12.7614 15 15 12.7614 15 10C15 7.23858 12.7614 5 10 5C7.23858 5 5 7.23858 5 10Z" fill="#FF6666"/>
<path id="Ellipse 5" d="M20 72C20 77.5228 15.5228 82 10 82C4.47715 82 0 77.5228 0 72C0 66.4772 4.47715 62 10 62C15.5228 62 20 66.4772 20 72ZM5 72C5 74.7614 7.23858 77 10 77C12.7614 77 15 74.7614 15 72C15 69.2386 12.7614 67 10 67C7.23858 67 5 69.2386 5 72Z" fill="#7A96F9"/>
</g>
<defs>
<linearGradient id="paint0_linear_14_4140" x1="10" y1="19.5" x2="10" y2="62.5" gradientUnits="userSpaceOnUse">
<stop stop-color="#FF6666"/>
<stop offset="1" stop-color="#7A96F9"/>
</linearGradient>
</defs>
</svg>
