<svg width="264" height="84" viewBox="0 0 264 84" fill="none" xmlns="http://www.w3.org/2000/svg">
<path d="M0.52 26V0.079999H17.26V4.148H4.858V10.538H15.1V14.606H4.858V21.932H17.26V26H0.52ZM21.5786 26V6.56H35.4386V10.628H25.9166V26H21.5786ZM47.1099 26.54C45.1659 26.54 43.4679 26.102 42.0159 25.226C40.5639 24.35 39.4359 23.144 38.6319 21.608C37.8399 20.06 37.4439 18.284 37.4439 16.28C37.4439 14.24 37.8519 12.452 38.6679 10.916C39.4839 9.38 40.6179 8.18 42.0699 7.316C43.5219 6.452 45.2019 6.02 47.1099 6.02C49.0659 6.02 50.7699 6.458 52.2219 7.334C53.6739 8.21 54.8019 9.422 55.6059 10.97C56.4099 12.506 56.8119 14.276 56.8119 16.28C56.8119 18.296 56.4039 20.078 55.5879 21.626C54.7839 23.162 53.6559 24.368 52.2039 25.244C50.7519 26.108 49.0539 26.54 47.1099 26.54ZM47.1099 22.472C48.8379 22.472 50.1219 21.896 50.9619 20.744C51.8019 19.592 52.2219 18.104 52.2219 16.28C52.2219 14.396 51.7959 12.896 50.9439 11.78C50.0919 10.652 48.8139 10.088 47.1099 10.088C45.9459 10.088 44.9859 10.352 44.2299 10.88C43.4859 11.396 42.9339 12.122 42.5739 13.058C42.2139 13.982 42.0339 15.056 42.0339 16.28C42.0339 18.164 42.4599 19.67 43.3119 20.798C44.1759 21.914 45.4419 22.472 47.1099 22.472ZM70.1198 26.54C68.2238 26.54 66.6338 26.09 65.3498 25.19C64.0658 24.29 63.0998 23.066 62.4518 21.518C61.8038 19.958 61.4798 18.212 61.4798 16.28C61.4798 14.324 61.8038 12.572 62.4518 11.024C63.0998 9.476 64.0478 8.258 65.2958 7.37C66.5558 6.47 68.1098 6.02 69.9578 6.02C71.7938 6.02 73.3838 6.47 74.7278 7.37C76.0838 8.258 77.1338 9.476 77.8778 11.024C78.6218 12.56 78.9938 14.312 78.9938 16.28C78.9938 18.224 78.6278 19.97 77.8958 21.518C77.1638 23.066 76.1318 24.29 74.7998 25.19C73.4678 26.09 71.9078 26.54 70.1198 26.54ZM60.7418 34.64V6.56H64.5758V20.204H65.1158V34.64H60.7418ZM69.4538 22.652C70.5818 22.652 71.5118 22.37 72.2438 21.806C72.9758 21.242 73.5158 20.48 73.8638 19.52C74.2238 18.548 74.4038 17.468 74.4038 16.28C74.4038 15.104 74.2238 14.036 73.8638 13.076C73.5038 12.104 72.9458 11.336 72.1898 10.772C71.4338 10.196 70.4738 9.908 69.3098 9.908C68.2058 9.908 67.3058 10.178 66.6098 10.718C65.9138 11.246 65.3978 11.99 65.0618 12.95C64.7378 13.898 64.5758 15.008 64.5758 16.28C64.5758 17.54 64.7378 18.65 65.0618 19.61C65.3978 20.57 65.9198 21.32 66.6278 21.86C67.3478 22.388 68.2898 22.652 69.4538 22.652ZM82.9254 26L82.9614 6.56H87.3534V15.92L94.4634 6.56H99.8814L92.3394 16.28L100.529 26H94.7874L87.3534 16.64V26H82.9254ZM107.769 26.54C106.365 26.54 105.177 26.276 104.205 25.748C103.233 25.208 102.495 24.494 101.991 23.606C101.499 22.718 101.253 21.74 101.253 20.672C101.253 19.736 101.409 18.896 101.721 18.152C102.033 17.396 102.513 16.748 103.161 16.208C103.809 15.656 104.649 15.206 105.681 14.858C106.461 14.606 107.373 14.378 108.417 14.174C109.473 13.97 110.613 13.784 111.837 13.616C113.073 13.436 114.363 13.244 115.707 13.04L114.159 13.922C114.171 12.578 113.871 11.588 113.259 10.952C112.647 10.316 111.615 9.998 110.163 9.998C109.287 9.998 108.441 10.202 107.625 10.61C106.809 11.018 106.239 11.72 105.915 12.716L101.955 11.474C102.435 9.83 103.347 8.51 104.691 7.514C106.047 6.518 107.871 6.02 110.163 6.02C111.891 6.02 113.409 6.302 114.717 6.866C116.037 7.43 117.015 8.354 117.651 9.638C117.999 10.322 118.209 11.024 118.281 11.744C118.353 12.452 118.389 13.226 118.389 14.066V26H114.591V21.788L115.221 22.472C114.345 23.876 113.319 24.908 112.143 25.568C110.979 26.216 109.521 26.54 107.769 26.54ZM108.633 23.084C109.617 23.084 110.457 22.91 111.153 22.562C111.849 22.214 112.401 21.788 112.809 21.284C113.229 20.78 113.511 20.306 113.655 19.862C113.883 19.31 114.009 18.68 114.033 17.972C114.069 17.252 114.087 16.67 114.087 16.226L115.419 16.622C114.111 16.826 112.989 17.006 112.053 17.162C111.117 17.318 110.313 17.468 109.641 17.612C108.969 17.744 108.375 17.894 107.859 18.062C107.355 18.242 106.929 18.452 106.581 18.692C106.233 18.932 105.963 19.208 105.771 19.52C105.591 19.832 105.501 20.198 105.501 20.618C105.501 21.098 105.621 21.524 105.861 21.896C106.101 22.256 106.449 22.544 106.905 22.76C107.373 22.976 107.949 23.084 108.633 23.084ZM130.246 26V6.56H134.584V14.228H143.314V6.56H147.652V26H143.314V18.296H134.584V26H130.246ZM155.232 34.64L158.976 24.362L159.048 27.386L150.57 6.56H155.088L161.1 21.968H159.948L165.798 6.56H170.136L159.3 34.64H155.232ZM170.661 26L177.789 16.28L171.093 6.56H175.845L182.163 15.974V6.56H186.015V15.974L192.333 6.56H197.067L190.371 16.28L197.499 26H192.495L186.015 16.586V26H182.163V16.586L175.665 26H170.661ZM208.518 26.54C206.55 26.54 204.822 26.114 203.334 25.262C201.846 24.41 200.682 23.228 199.842 21.716C199.014 20.204 198.6 18.464 198.6 16.496C198.6 14.372 199.008 12.53 199.824 10.97C200.64 9.398 201.774 8.18 203.226 7.316C204.678 6.452 206.358 6.02 208.266 6.02C210.282 6.02 211.992 6.494 213.396 7.442C214.812 8.378 215.862 9.704 216.546 11.42C217.23 13.136 217.488 15.158 217.32 17.486H213.018V15.902C213.006 13.79 212.634 12.248 211.902 11.276C211.17 10.304 210.018 9.818 208.446 9.818C206.67 9.818 205.35 10.37 204.486 11.474C203.622 12.566 203.19 14.168 203.19 16.28C203.19 18.248 203.622 19.772 204.486 20.852C205.35 21.932 206.61 22.472 208.266 22.472C209.334 22.472 210.252 22.238 211.02 21.77C211.8 21.29 212.4 20.6 212.82 19.7L217.104 20.996C216.36 22.748 215.208 24.11 213.648 25.082C212.1 26.054 210.39 26.54 208.518 26.54ZM201.822 17.486V14.21H215.196V17.486H201.822ZM221.3 26V6.56H225.638V14.228H234.368V6.56H238.706V26H234.368V18.296H225.638V26H221.3ZM0.484 75V55.56H17.368V75H13.03V59.628H4.822V75H0.484ZM31.7643 75.54C29.8683 75.54 28.2783 75.09 26.9943 74.19C25.7103 73.29 24.7443 72.066 24.0963 70.518C23.4483 68.958 23.1243 67.212 23.1243 65.28C23.1243 63.324 23.4483 61.572 24.0963 60.024C24.7443 58.476 25.6923 57.258 26.9403 56.37C28.2003 55.47 29.7543 55.02 31.6023 55.02C33.4383 55.02 35.0283 55.47 36.3723 56.37C37.7283 57.258 38.7783 58.476 39.5223 60.024C40.2663 61.56 40.6383 63.312 40.6383 65.28C40.6383 67.224 40.2723 68.97 39.5403 70.518C38.8083 72.066 37.7763 73.29 36.4443 74.19C35.1123 75.09 33.5523 75.54 31.7643 75.54ZM22.3863 83.64V55.56H26.2203V69.204H26.7603V83.64H22.3863ZM31.0983 71.652C32.2263 71.652 33.1563 71.37 33.8883 70.806C34.6203 70.242 35.1603 69.48 35.5083 68.52C35.8683 67.548 36.0483 66.468 36.0483 65.28C36.0483 64.104 35.8683 63.036 35.5083 62.076C35.1483 61.104 34.5903 60.336 33.8343 59.772C33.0783 59.196 32.1183 58.908 30.9543 58.908C29.8503 58.908 28.9503 59.178 28.2543 59.718C27.5583 60.246 27.0423 60.99 26.7063 61.95C26.3823 62.898 26.2203 64.008 26.2203 65.28C26.2203 66.54 26.3823 67.65 26.7063 68.61C27.0423 69.57 27.5643 70.32 28.2723 70.86C28.9923 71.388 29.9343 71.652 31.0983 71.652ZM56.2339 75V68.52H52.7599C52.3159 68.52 51.7579 68.508 51.0859 68.484C50.4259 68.46 49.8079 68.4 49.2319 68.304C47.7319 68.028 46.4899 67.374 45.5059 66.342C44.5219 65.298 44.0299 63.882 44.0299 62.094C44.0299 60.342 44.4979 58.932 45.4339 57.864C46.3699 56.796 47.5879 56.112 49.0879 55.812C49.7119 55.68 50.3539 55.608 51.0139 55.596C51.6859 55.572 52.2439 55.56 52.6879 55.56H60.5719V75H56.2339ZM43.5259 75L48.1699 67.566H52.6879L48.0799 75H43.5259ZM52.3099 65.118H56.2339V58.962H52.3099C52.0819 58.962 51.8059 58.974 51.4819 58.998C51.1579 59.022 50.8339 59.076 50.5099 59.16C50.1619 59.268 49.8319 59.454 49.5199 59.718C49.2079 59.982 48.9499 60.312 48.7459 60.708C48.5419 61.104 48.4399 61.554 48.4399 62.058C48.4399 62.814 48.6559 63.444 49.0879 63.948C49.5319 64.44 50.0479 64.77 50.6359 64.938C50.9239 65.01 51.2179 65.058 51.5179 65.082C51.8299 65.106 52.0939 65.118 52.3099 65.118ZM65.5582 75V55.56H69.1222L76.0882 68.988L83.0722 55.56H86.6182V75H82.4782V64.29L76.9522 75H75.2422L69.7162 64.29V75H65.5582ZM100.231 75.54C98.287 75.54 96.589 75.102 95.137 74.226C93.685 73.35 92.557 72.144 91.753 70.608C90.961 69.06 90.565 67.284 90.565 65.28C90.565 63.24 90.973 61.452 91.789 59.916C92.605 58.38 93.739 57.18 95.191 56.316C96.643 55.452 98.323 55.02 100.231 55.02C102.187 55.02 103.891 55.458 105.343 56.334C106.795 57.21 107.923 58.422 108.727 59.97C109.531 61.506 109.933 63.276 109.933 65.28C109.933 67.296 109.525 69.078 108.709 70.626C107.905 72.162 106.777 73.368 105.325 74.244C103.873 75.108 102.175 75.54 100.231 75.54ZM100.231 71.472C101.959 71.472 103.243 70.896 104.083 69.744C104.923 68.592 105.343 67.104 105.343 65.28C105.343 63.396 104.917 61.896 104.065 60.78C103.213 59.652 101.935 59.088 100.231 59.088C99.067 59.088 98.107 59.352 97.351 59.88C96.607 60.396 96.055 61.122 95.695 62.058C95.335 62.982 95.155 64.056 95.155 65.28C95.155 67.164 95.581 68.67 96.433 69.798C97.297 70.914 98.563 71.472 100.231 71.472ZM129.548 75.54C127.544 75.54 125.834 75.096 124.418 74.208C123.002 73.308 121.916 72.084 121.16 70.536C120.416 68.988 120.038 67.236 120.026 65.28C120.038 63.288 120.428 61.524 121.196 59.988C121.976 58.44 123.08 57.228 124.508 56.352C125.936 55.464 127.634 55.02 129.602 55.02C131.81 55.02 133.676 55.578 135.2 56.694C136.736 57.798 137.738 59.31 138.206 61.23L133.886 62.4C133.55 61.356 132.992 60.546 132.212 59.97C131.432 59.382 130.544 59.088 129.548 59.088C128.42 59.088 127.49 59.358 126.758 59.898C126.026 60.426 125.486 61.158 125.138 62.094C124.79 63.03 124.616 64.092 124.616 65.28C124.616 67.128 125.03 68.622 125.858 69.762C126.686 70.902 127.916 71.472 129.548 71.472C130.7 71.472 131.606 71.208 132.266 70.68C132.938 70.152 133.442 69.39 133.778 68.394L138.206 69.384C137.606 71.364 136.556 72.888 135.056 73.956C133.556 75.012 131.72 75.54 129.548 75.54ZM150.651 75.54C148.683 75.54 146.955 75.114 145.467 74.262C143.979 73.41 142.815 72.228 141.975 70.716C141.147 69.204 140.733 67.464 140.733 65.496C140.733 63.372 141.141 61.53 141.957 59.97C142.773 58.398 143.907 57.18 145.359 56.316C146.811 55.452 148.491 55.02 150.399 55.02C152.415 55.02 154.125 55.494 155.529 56.442C156.945 57.378 157.995 58.704 158.679 60.42C159.363 62.136 159.621 64.158 159.453 66.486H155.151V64.902C155.139 62.79 154.767 61.248 154.035 60.276C153.303 59.304 152.151 58.818 150.579 58.818C148.803 58.818 147.483 59.37 146.619 60.474C145.755 61.566 145.323 63.168 145.323 65.28C145.323 67.248 145.755 68.772 146.619 69.852C147.483 70.932 148.743 71.472 150.399 71.472C151.467 71.472 152.385 71.238 153.153 70.77C153.933 70.29 154.533 69.6 154.953 68.7L159.237 69.996C158.493 71.748 157.341 73.11 155.781 74.082C154.233 75.054 152.523 75.54 150.651 75.54ZM143.955 66.486V63.21H157.329V66.486H143.955ZM172.451 53.364C171.455 53.364 170.543 53.118 169.715 52.626C168.887 52.134 168.227 51.48 167.735 50.664C167.243 49.836 166.997 48.918 166.997 47.91H170.381C170.381 48.486 170.579 48.978 170.975 49.386C171.383 49.782 171.875 49.98 172.451 49.98C173.027 49.98 173.513 49.782 173.909 49.386C174.317 48.978 174.521 48.486 174.521 47.91H177.905C177.905 48.918 177.659 49.836 177.167 50.664C176.675 51.48 176.015 52.134 175.187 52.626C174.359 53.118 173.447 53.364 172.451 53.364ZM180.317 55.56V75H176.159V62.31L166.907 75H163.433V55.56H167.591V67.926L176.879 55.56H180.317ZM196.694 75V68.466C196.022 68.802 195.254 69.066 194.39 69.258C193.538 69.45 192.644 69.546 191.708 69.546C189.704 69.546 188.102 69.096 186.902 68.196C185.714 67.296 184.946 65.988 184.598 64.272C184.49 63.78 184.412 63.27 184.364 62.742C184.328 62.202 184.304 61.716 184.292 61.284C184.292 60.84 184.292 60.504 184.292 60.276V55.56H188.684V60.276C188.684 60.54 188.696 60.93 188.72 61.446C188.744 61.95 188.81 62.454 188.918 62.958C189.146 63.918 189.56 64.62 190.16 65.064C190.76 65.508 191.618 65.73 192.734 65.73C193.598 65.73 194.36 65.616 195.02 65.388C195.68 65.16 196.238 64.872 196.694 64.524V55.56H201.05V75H196.694ZM211.515 75.54C210.111 75.54 208.923 75.276 207.951 74.748C206.979 74.208 206.241 73.494 205.737 72.606C205.245 71.718 204.999 70.74 204.999 69.672C204.999 68.736 205.155 67.896 205.467 67.152C205.779 66.396 206.259 65.748 206.907 65.208C207.555 64.656 208.395 64.206 209.427 63.858C210.207 63.606 211.119 63.378 212.163 63.174C213.219 62.97 214.359 62.784 215.583 62.616C216.819 62.436 218.109 62.244 219.453 62.04L217.905 62.922C217.917 61.578 217.617 60.588 217.005 59.952C216.393 59.316 215.361 58.998 213.909 58.998C213.033 58.998 212.187 59.202 211.371 59.61C210.555 60.018 209.985 60.72 209.661 61.716L205.701 60.474C206.181 58.83 207.093 57.51 208.437 56.514C209.793 55.518 211.617 55.02 213.909 55.02C215.637 55.02 217.155 55.302 218.463 55.866C219.783 56.43 220.761 57.354 221.397 58.638C221.745 59.322 221.955 60.024 222.027 60.744C222.099 61.452 222.135 62.226 222.135 63.066V75H218.337V70.788L218.967 71.472C218.091 72.876 217.065 73.908 215.889 74.568C214.725 75.216 213.267 75.54 211.515 75.54ZM212.379 72.084C213.363 72.084 214.203 71.91 214.899 71.562C215.595 71.214 216.147 70.788 216.555 70.284C216.975 69.78 217.257 69.306 217.401 68.862C217.629 68.31 217.755 67.68 217.779 66.972C217.815 66.252 217.833 65.67 217.833 65.226L219.165 65.622C217.857 65.826 216.735 66.006 215.799 66.162C214.863 66.318 214.059 66.468 213.387 66.612C212.715 66.744 212.121 66.894 211.605 67.062C211.101 67.242 210.675 67.452 210.327 67.692C209.979 67.932 209.709 68.208 209.517 68.52C209.337 68.832 209.247 69.198 209.247 69.618C209.247 70.098 209.367 70.524 209.607 70.896C209.847 71.256 210.195 71.544 210.651 71.76C211.119 71.976 211.695 72.084 212.379 72.084ZM235.263 75.54C233.259 75.54 231.549 75.096 230.133 74.208C228.717 73.308 227.631 72.084 226.875 70.536C226.131 68.988 225.753 67.236 225.741 65.28C225.753 63.288 226.143 61.524 226.911 59.988C227.691 58.44 228.795 57.228 230.223 56.352C231.651 55.464 233.349 55.02 235.317 55.02C237.525 55.02 239.391 55.578 240.915 56.694C242.451 57.798 243.453 59.31 243.921 61.23L239.601 62.4C239.265 61.356 238.707 60.546 237.927 59.97C237.147 59.382 236.259 59.088 235.263 59.088C234.135 59.088 233.205 59.358 232.473 59.898C231.741 60.426 231.201 61.158 230.853 62.094C230.505 63.03 230.331 64.092 230.331 65.28C230.331 67.128 230.745 68.622 231.573 69.762C232.401 70.902 233.631 71.472 235.263 71.472C236.415 71.472 237.321 71.208 237.981 70.68C238.653 70.152 239.157 69.39 239.493 68.394L243.921 69.384C243.321 71.364 242.271 72.888 240.771 73.956C239.271 75.012 237.435 75.54 235.263 75.54ZM252.226 67.962C252.226 67.134 252.304 66.336 252.46 65.568C252.628 64.788 252.898 64.068 253.27 63.408C253.594 62.772 253.954 62.268 254.35 61.896C254.746 61.512 255.19 61.134 255.682 60.762C256.174 60.378 256.72 59.868 257.32 59.232C257.812 58.692 258.136 58.158 258.292 57.63C258.448 57.09 258.526 56.514 258.526 55.902C258.526 55.506 258.484 55.134 258.4 54.786C258.316 54.438 258.166 54.138 257.95 53.886C257.614 53.442 257.182 53.13 256.654 52.95C256.126 52.758 255.562 52.662 254.962 52.662C254.47 52.662 253.996 52.728 253.54 52.86C253.096 52.98 252.718 53.172 252.406 53.436C252.046 53.724 251.782 54.078 251.614 54.498C251.446 54.918 251.368 55.38 251.38 55.884H246.808C246.928 54.684 247.252 53.574 247.78 52.554C248.32 51.522 249.028 50.7 249.904 50.088C250.588 49.584 251.356 49.206 252.208 48.954C253.072 48.702 253.936 48.576 254.8 48.576C256.12 48.576 257.362 48.78 258.526 49.188C259.702 49.596 260.68 50.268 261.46 51.204C262 51.816 262.408 52.524 262.684 53.328C262.972 54.132 263.116 54.948 263.116 55.776C263.116 57.012 262.846 58.14 262.306 59.16C261.778 60.18 261.106 61.122 260.29 61.986C259.906 62.394 259.54 62.754 259.192 63.066C258.844 63.378 258.52 63.684 258.22 63.984C257.932 64.272 257.692 64.578 257.5 64.902C257.164 65.466 256.966 65.946 256.906 66.342C256.846 66.726 256.816 67.266 256.816 67.962H252.226ZM252.262 75V70.23H256.816V75H252.262Z" fill="#333333"/>
</svg>
