<svg width="22" height="22" viewBox="0 0 22 22" fill="none" xmlns="http://www.w3.org/2000/svg">
<g id="vuesax/bulk/more">
<g id="more">
<path id="Vector" d="M11 9.086C10.0382 9.086 9.25 9.87417 9.25 10.836C9.25 11.7978 10.0382 12.586 11 12.586C11.9618 12.586 12.75 11.7978 12.75 10.836C12.75 9.87417 11.9618 9.086 11 9.086Z" fill="#333333"/>
<path id="Vector_2" d="M4.875 9.086C3.91317 9.086 3.125 9.87417 3.125 10.836C3.125 11.7978 3.91317 12.586 4.875 12.586C5.83683 12.586 6.625 11.7978 6.625 10.836C6.625 9.87417 5.83683 9.086 4.875 9.086Z" fill="#333333"/>
<path id="Vector_3" d="M17.125 9.086C16.1632 9.086 15.375 9.87417 15.375 10.836C15.375 11.7978 16.1632 12.586 17.125 12.586C18.0868 12.586 18.875 11.7978 18.875 10.836C18.875 9.87417 18.0868 9.086 17.125 9.086Z" fill="#333333"/>
</g>
</g>
</svg>
