<svg width="40" height="65" viewBox="0 0 40 65" fill="none" xmlns="http://www.w3.org/2000/svg">
<g id="Vector" filter="url(#filter0_d_81_4471)">
<path fill-rule="evenodd" clip-rule="evenodd" d="M4 16C4 7.16344 11.1634 0 20 0C28.8366 0 36 7.16344 36 16C36 23.8189 30.4094 30.3279 23 31.7234V57H17V31.715C9.60417 30.3021 4 23.8034 4 16ZM20 22.4C16.4654 22.4 13.6 19.5346 13.6 16C13.6 12.4654 16.4654 9.6 20 9.6C23.5346 9.6 26.4 12.4654 26.4 16C26.4 19.5346 23.5346 22.4 20 22.4Z" fill="#FF6666"/>
</g>
<defs>
<filter id="filter0_d_81_4471" x="0" y="0" width="40" height="65" filterUnits="userSpaceOnUse" color-interpolation-filters="sRGB">
<feFlood flood-opacity="0" result="BackgroundImageFix"/>
<feColorMatrix in="SourceAlpha" type="matrix" values="0 0 0 0 0 0 0 0 0 0 0 0 0 0 0 0 0 0 127 0" result="hardAlpha"/>
<feOffset dy="4"/>
<feGaussianBlur stdDeviation="2"/>
<feComposite in2="hardAlpha" operator="out"/>
<feColorMatrix type="matrix" values="0 0 0 0 0.2 0 0 0 0 0.2 0 0 0 0 0.2 0 0 0 0.12 0"/>
<feBlend mode="normal" in2="BackgroundImageFix" result="effect1_dropShadow_81_4471"/>
<feBlend mode="normal" in="SourceGraphic" in2="effect1_dropShadow_81_4471" result="shape"/>
</filter>
</defs>
</svg>
